<?xml version="1.0" standalone="no"?>
<!DOCTYPE svg PUBLIC "-//W3C//DTD SVG 20010904//EN"
 "http://www.w3.org/TR/2001/REC-SVG-20010904/DTD/svg10.dtd">
<svg version="1.0" xmlns="http://www.w3.org/2000/svg"
 width="460.000000pt" height="460.000000pt" viewBox="0 0 460.000000 460.000000"
 preserveAspectRatio="xMidYMid meet">
<metadata>
Created by potrace 1.14, written by Peter Selinger 2001-2017
</metadata>
<g transform="translate(0.000000,460.000000) scale(0.100000,-0.100000)"
fill="#000000" stroke="none">
<path d="M0 4146 c0 -350 3 -456 13 -459 9 -4 9 -6 0 -6 -18 -1 -18 -357 0
-364 9 -4 9 -6 0 -6 -9 -1 -13 -25 -13 -85 l0 -83 87 -79 c48 -44 119 -110
159 -147 40 -38 82 -77 95 -88 12 -10 83 -77 158 -147 74 -70 164 -154 200
-187 35 -33 76 -71 90 -85 54 -51 273 -254 292 -271 11 -9 79 -73 152 -142 73
-68 161 -151 197 -183 35 -32 80 -75 101 -94 20 -19 69 -66 110 -104 41 -38
110 -104 154 -145 73 -70 281 -264 359 -336 42 -38 257 -239 304 -283 19 -18
32 -36 28 -39 -4 -4 -35 20 -69 53 -34 33 -138 132 -232 219 -93 87 -235 220
-315 295 -80 75 -179 167 -220 205 -41 38 -77 72 -80 75 -3 3 -39 37 -80 75
-41 39 -143 133 -225 211 -83 78 -162 152 -176 165 -49 45 -293 274 -394 369
-55 52 -162 154 -238 225 -76 72 -160 150 -186 175 -26 25 -98 92 -159 149
l-112 103 0 -84 0 -84 97 -90 c53 -49 129 -119 168 -155 38 -36 88 -81 109
-100 22 -19 51 -45 65 -59 26 -25 198 -183 300 -275 31 -27 87 -79 126 -115
38 -36 122 -113 185 -170 63 -58 117 -107 120 -110 3 -3 57 -52 120 -110 62
-58 121 -112 130 -120 9 -8 43 -39 76 -69 32 -29 86 -79 119 -110 33 -31 114
-106 180 -166 190 -173 214 -196 294 -271 42 -39 99 -91 126 -115 28 -24 78
-71 113 -103 34 -33 72 -66 82 -73 20 -14 27 -33 13 -33 -5 0 -40 31 -79 68
-39 37 -110 103 -159 147 -49 44 -106 96 -126 115 -20 19 -58 55 -85 79 -105
95 -262 240 -344 316 -47 44 -125 116 -174 160 -49 44 -103 94 -121 110 -110
103 -172 161 -264 245 -58 52 -141 129 -185 171 -45 41 -157 145 -250 230 -92
85 -190 174 -217 199 -26 25 -90 83 -140 130 -51 47 -125 116 -165 154 -119
112 -114 112 -114 14 l0 -84 38 -31 c21 -18 61 -54 89 -80 28 -26 84 -77 124
-113 41 -35 76 -67 79 -70 6 -6 190 -171 240 -215 19 -16 47 -42 62 -57 16
-15 68 -62 116 -104 85 -75 209 -187 321 -290 86 -78 179 -162 266 -241 44
-39 92 -82 106 -95 14 -12 50 -45 80 -72 30 -27 89 -81 133 -120 43 -39 90
-82 105 -94 14 -13 44 -40 66 -61 22 -20 112 -102 200 -181 362 -324 358 -320
350 -328 -4 -5 -89 68 -235 203 -73 68 -109 100 -345 310 -60 54 -114 103
-120 109 -5 6 -55 51 -110 100 -55 49 -127 114 -160 146 -33 31 -100 92 -150
135 -49 43 -112 100 -140 125 -27 26 -72 67 -100 91 -27 24 -52 47 -55 50 -3
3 -57 52 -120 109 -63 57 -140 127 -170 156 -30 29 -67 62 -81 73 -14 11 -41
34 -60 52 -19 18 -74 68 -124 113 -49 44 -95 85 -101 91 -57 55 -288 261 -295
263 -5 2 -9 -32 -9 -75 l0 -79 72 -65 c89 -79 141 -125 192 -170 22 -19 51
-45 66 -59 15 -14 36 -32 46 -40 26 -22 201 -177 298 -264 43 -39 88 -79 100
-89 69 -61 181 -159 426 -376 242 -215 334 -296 569 -506 31 -27 90 -79 131
-115 118 -104 185 -163 190 -169 3 -3 58 -53 123 -110 65 -57 116 -105 113
-108 -6 -7 -39 19 -135 106 -42 38 -117 104 -166 147 -106 93 -442 391 -500
443 -22 20 -85 76 -140 125 -55 49 -136 122 -180 161 -44 40 -98 88 -120 106
-23 19 -60 52 -84 74 -53 48 -48 44 -146 130 -44 39 -84 75 -90 81 -5 6 -91
82 -190 169 -99 87 -216 191 -260 230 -137 124 -279 250 -297 264 -17 13 -18
8 -18 -71 l0 -85 62 -51 c71 -57 107 -89 158 -135 19 -18 64 -57 100 -87 36
-30 67 -58 70 -61 3 -4 26 -24 51 -45 73 -62 322 -277 339 -294 9 -8 45 -40
80 -70 36 -30 85 -73 110 -96 25 -22 79 -69 120 -104 41 -35 109 -93 150 -130
41 -37 91 -80 110 -96 19 -16 40 -34 45 -40 6 -6 42 -37 80 -70 39 -32 142
-122 230 -200 88 -77 212 -185 275 -239 63 -54 117 -101 120 -106 3 -4 23 -21
44 -38 65 -52 128 -112 122 -118 -3 -3 -53 37 -111 88 -59 52 -126 109 -148
128 -23 19 -80 69 -127 111 -47 41 -134 118 -195 170 -60 52 -112 96 -115 99
-3 4 -36 33 -75 66 -38 33 -88 76 -110 96 -22 20 -56 50 -75 65 -19 16 -37 31
-40 34 -9 10 -95 85 -154 135 -32 28 -68 59 -80 70 -13 11 -54 47 -91 80 -38
33 -110 96 -160 140 -50 44 -120 105 -155 135 -36 30 -87 75 -115 100 -27 25
-96 86 -153 134 -57 49 -113 98 -125 110 -13 11 -49 44 -81 71 -32 28 -77 67
-99 87 -23 21 -45 38 -49 38 -5 0 -8 -35 -8 -79 l0 -79 57 -48 c32 -27 63 -54
69 -59 6 -6 30 -27 53 -46 24 -18 57 -47 74 -63 18 -15 52 -44 77 -64 25 -20
50 -41 55 -47 6 -6 68 -60 140 -120 72 -60 132 -112 135 -115 6 -7 194 -167
264 -225 27 -22 54 -45 60 -51 6 -6 79 -68 161 -139 83 -70 191 -162 240 -205
50 -42 142 -122 206 -176 485 -413 630 -539 620 -542 -5 -2 -58 39 -117 90
-58 51 -121 104 -138 117 -17 14 -51 43 -77 65 -44 40 -105 92 -184 158 -22
18 -56 47 -75 64 -19 17 -100 87 -180 155 -80 68 -150 128 -156 134 -6 5 -22
19 -35 30 -95 81 -249 212 -274 234 -36 31 -92 80 -166 142 -30 25 -138 118
-240 207 -103 88 -196 168 -209 179 -54 45 -326 278 -338 290 -7 7 -15 13 -18
13 -2 0 -4 -37 -4 -82 l1 -83 39 -30 c21 -16 94 -77 161 -135 68 -58 136 -115
152 -127 16 -12 45 -36 65 -55 21 -18 62 -53 92 -78 70 -58 100 -82 114 -95 6
-6 76 -64 156 -130 79 -66 152 -127 160 -135 9 -8 36 -31 60 -50 24 -19 58
-47 75 -61 16 -14 43 -37 59 -50 16 -13 34 -29 40 -34 6 -6 49 -42 96 -80 47
-38 121 -101 166 -140 45 -38 90 -77 100 -85 32 -25 129 -105 134 -110 3 -3
45 -39 95 -80 49 -41 97 -82 105 -90 9 -8 38 -33 65 -55 106 -85 225 -189 225
-197 0 -11 -15 -2 -50 28 -14 12 -83 70 -155 130 -71 59 -148 124 -171 143
-22 20 -51 45 -65 56 -13 11 -69 59 -125 105 -55 47 -122 103 -149 125 -27 22
-124 103 -215 180 -169 143 -262 221 -398 333 -42 35 -90 76 -107 90 -44 40
-393 334 -424 357 -14 11 -44 36 -66 56 -22 20 -69 61 -105 90 -36 29 -76 64
-90 76 -14 13 -28 23 -32 23 -5 0 -8 -36 -8 -79 l0 -79 61 -49 c33 -26 72 -59
87 -71 15 -13 83 -69 152 -124 69 -56 148 -120 175 -144 28 -23 101 -85 164
-136 63 -51 166 -136 230 -188 64 -52 127 -105 141 -117 14 -12 95 -79 180
-149 85 -69 227 -186 315 -258 88 -73 260 -214 383 -315 122 -100 222 -184
222 -187 0 -19 -27 2 -370 286 -89 74 -192 159 -229 189 -193 157 -314 257
-335 276 -6 6 -45 37 -86 70 -41 33 -93 75 -116 95 -66 57 -109 93 -150 125
-21 17 -81 66 -134 111 -52 44 -104 87 -116 95 -12 7 -45 34 -74 59 -102 86
-125 106 -175 145 -68 54 -92 74 -139 115 -40 35 -133 111 -169 139 -16 13
-17 8 -16 -70 l0 -84 90 -70 c50 -38 100 -79 112 -89 12 -10 85 -69 162 -131
77 -62 192 -154 255 -206 161 -130 260 -209 305 -244 21 -16 65 -52 99 -80 33
-27 109 -90 170 -138 61 -49 125 -100 141 -114 17 -14 120 -98 230 -186 110
-89 227 -183 260 -210 33 -27 67 -54 75 -61 116 -92 150 -121 150 -128 0 -4
574 -8 1275 -8 l1275 0 0 2299 0 2300 -2300 1 -2300 0 0 -454z m4377 438 c-3
-3 -12 -4 -19 -1 -8 3 -5 6 6 6 11 1 17 -2 13 -5z m-334 -11 c-7 -2 -19 -2
-25 0 -7 3 -2 5 12 5 14 0 19 -2 13 -5z m290 0 c-7 -2 -19 -2 -25 0 -7 3 -2 5
12 5 14 0 19 -2 13 -5z m-648 -23 c-3 -5 -12 -10 -18 -10 -7 0 -6 4 3 10 19
12 23 12 15 0z m282 4 c-3 -3 -12 -4 -19 -1 -8 3 -5 6 6 6 11 1 17 -2 13 -5z
m268 -4 c-11 -5 -29 -9 -40 -9 l-20 0 20 9 c11 5 29 9 40 9 l20 0 -20 -9z
m262 -6 c-3 -3 -12 -4 -19 -1 -8 3 -5 6 6 6 11 1 17 -2 13 -5z m-364 -21 c-7
-2 -19 -2 -25 0 -7 3 -2 5 12 5 14 0 19 -2 13 -5z m290 0 c-7 -2 -19 -2 -25 0
-7 3 -2 5 12 5 14 0 19 -2 13 -5z m-46 -9 c-3 -3 -12 -4 -19 -1 -8 3 -5 6 6 6
11 1 17 -2 13 -5z m-328 -8 c-12 -10 -60 -16 -54 -6 3 5 18 10 32 10 15 0 24
-2 22 -4z m271 -6 c-34 -11 -60 -11 -35 0 11 5 29 8 40 8 16 0 15 -2 -5 -8z
m-405 -30 c-11 -5 -27 -9 -35 -9 -9 0 -8 4 5 9 11 5 27 9 35 9 9 0 8 -4 -5 -9z
m285 0 c-8 -5 -22 -10 -30 -10 -13 0 -13 1 0 10 8 5 22 10 30 10 13 0 13 -1 0
-10z m227 -16 c-3 -3 -12 -4 -19 -1 -8 3 -5 6 6 6 11 1 17 -2 13 -5z m-620
-10 c-3 -3 -12 -4 -19 -1 -8 3 -5 6 6 6 11 1 17 -2 13 -5z m280 0 c-3 -3 -12
-4 -19 -1 -8 3 -5 6 6 6 11 1 17 -2 13 -5z m296 -1 c-7 -2 -19 -2 -25 0 -7 3
-2 5 12 5 14 0 19 -2 13 -5z m-46 -9 c-3 -3 -12 -4 -19 -1 -8 3 -5 6 6 6 11 1
17 -2 13 -5z m-362 -14 c-3 -5 -14 -10 -23 -9 -14 0 -13 2 3 9 27 11 27 11 20
0z m305 0 c-14 -4 -34 -8 -45 -8 -16 0 -15 2 5 8 14 4 34 8 45 8 16 0 15 -2
-5 -8z m-393 -26 c-3 -3 -12 -4 -19 -1 -8 3 -5 6 6 6 11 1 17 -2 13 -5z m270
0 c-3 -3 -12 -4 -19 -1 -8 3 -5 6 6 6 11 1 17 -2 13 -5z m-2832 -34 c10 -11
16 -20 13 -20 -3 0 -13 9 -23 20 -10 11 -16 20 -13 20 3 0 13 -9 23 -20z
m2740 10 c-11 -5 -27 -9 -35 -9 -9 0 -8 4 5 9 11 5 27 9 35 9 9 0 8 -4 -5 -9z
m300 0 c-11 -5 -29 -8 -40 -8 -16 0 -15 2 5 8 34 11 60 11 35 0z m-385 -20
c-14 -4 -34 -8 -45 -8 -16 0 -15 2 5 8 14 4 34 8 45 8 16 0 15 -2 -5 -8z m317
4 c-3 -3 -12 -4 -19 -1 -8 3 -5 6 6 6 11 1 17 -2 13 -5z m-50 -10 c-3 -3 -12
-4 -19 -1 -8 3 -5 6 6 6 11 1 17 -2 13 -5z m-390 -20 c-3 -3 -12 -4 -19 -1 -8
3 -5 6 6 6 11 1 17 -2 13 -5z m283 -4 c-34 -11 -60 -11 -35 0 11 5 29 8 40 8
16 0 15 -2 -5 -8z m-323 -6 c-3 -3 -12 -4 -19 -1 -8 3 -5 6 6 6 11 1 17 -2 13
-5z m206 -21 c-7 -2 -21 -2 -30 0 -10 3 -4 5 12 5 17 0 24 -2 18 -5z m294 1
c-3 -3 -12 -4 -19 -1 -8 3 -5 6 6 6 11 1 17 -2 13 -5z m-50 -10 c-3 -3 -12 -4
-19 -1 -8 3 -5 6 6 6 11 1 17 -2 13 -5z m-362 -14 c-3 -5 -14 -10 -23 -10 -15
0 -15 2 -2 10 20 13 33 13 25 0z m300 0 c-28 -12 -37 -12 -30 0 3 6 16 10 28
9 21 0 21 -1 2 -9z m-3356 -44 c-3 -3 -11 5 -18 17 -13 21 -12 21 5 5 10 -10
16 -20 13 -22z m292 17 c13 -16 12 -17 -3 -4 -10 7 -18 15 -18 17 0 8 8 3 21
-13z m2634 -3 c-3 -5 -11 -10 -16 -10 -6 0 -7 5 -4 10 3 6 11 10 16 10 6 0 7
-4 4 -10z m295 0 c-8 -5 -22 -9 -30 -9 -10 0 -8 3 5 9 27 12 43 12 25 0z
m-2355 -20 c3 -5 2 -10 -4 -10 -5 0 -13 5 -16 10 -3 6 -2 10 4 10 5 0 13 -4
16 -10z m2553 -7 c-10 -2 -26 -2 -35 0 -10 3 -2 5 17 5 19 0 27 -2 18 -5z
m-2934 -29 c3 -8 2 -12 -4 -9 -6 3 -10 10 -10 16 0 14 7 11 14 -7z m2523 10
c-3 -3 -12 -4 -19 -1 -8 3 -5 6 6 6 11 1 17 -2 13 -5z m296 -1 c-7 -2 -19 -2
-25 0 -7 3 -2 5 12 5 14 0 19 -2 13 -5z m-46 -9 c-3 -3 -12 -4 -19 -1 -8 3 -5
6 6 6 11 1 17 -2 13 -5z m-3192 -24 c10 -11 16 -20 13 -20 -3 0 -13 9 -23 20
-10 11 -16 20 -13 20 3 0 13 -9 23 -20z m475 -39 c13 -11 12 -12 -6 -3 -12 7
-24 19 -28 29 -5 16 -4 16 7 3 7 -8 19 -21 27 -29z m2220 19 c-8 -5 -19 -10
-25 -10 -5 0 -3 5 5 10 8 5 20 10 25 10 6 0 3 -5 -5 -10z m307 4 c-3 -3 -12
-4 -19 -1 -8 3 -5 6 6 6 11 1 17 -2 13 -5z m293 -4 c-8 -5 -24 -9 -35 -9 -16
1 -16 2 5 9 35 11 48 11 30 0z m-123 -26 c-3 -3 -12 -4 -19 -1 -8 3 -5 6 6 6
11 1 17 -2 13 -5z m-3262 -24 c3 -5 1 -10 -4 -10 -6 0 -11 5 -11 10 0 6 2 10
4 10 3 0 8 -4 11 -10z m155 0 c0 -5 -2 -10 -4 -10 -3 0 -8 5 -11 10 -3 6 -1
10 4 10 6 0 11 -4 11 -10z m2997 4 c-3 -3 -12 -4 -19 -1 -8 3 -5 6 6 6 11 1
17 -2 13 -5z m-2686 -21 c13 -16 12 -17 -3 -4 -17 13 -22 21 -14 21 2 0 10 -8
17 -17z m2646 11 c-3 -3 -12 -4 -19 -1 -8 3 -5 6 6 6 11 1 17 -2 13 -5z m310
0 c-3 -3 -12 -4 -19 -1 -8 3 -5 6 6 6 11 1 17 -2 13 -5z m-3086 -31 c13 -16
12 -17 -3 -4 -10 7 -18 15 -18 17 0 8 8 3 21 -13z m690 0 c13 -16 12 -17 -3
-4 -10 7 -18 15 -18 17 0 8 8 3 21 -13z m2302 10 c-7 -2 -19 -2 -25 0 -7 3 -2
5 12 5 14 0 19 -2 13 -5z m-3128 -23 c3 -5 1 -10 -4 -10 -6 0 -11 5 -11 10 0
6 2 10 4 10 3 0 8 -4 11 -10z m585 -15 c13 -14 19 -25 14 -25 -8 1 -50 50 -41
50 2 0 14 -11 27 -25z m-261 -29 c-3 -3 -11 5 -18 17 -13 21 -12 21 5 5 10
-10 16 -20 13 -22z m132 17 c13 -16 12 -17 -3 -4 -10 7 -18 15 -18 17 0 8 8 3
21 -13z m279 -8 c13 -14 19 -25 14 -25 -8 1 -50 50 -41 50 2 0 14 -11 27 -25z
m-1019 -2 c13 -16 12 -17 -3 -4 -10 7 -18 15 -18 17 0 8 8 3 21 -13z m175 -15
l29 -33 -32 29 c-18 17 -33 31 -33 33 0 8 8 1 36 -29z m289 12 c10 -11 16 -20
13 -20 -3 0 -13 9 -23 20 -10 11 -16 20 -13 20 3 0 13 -9 23 -20z m690 0 c16
-17 16 -20 3 -15 -9 4 -19 13 -22 21 -7 19 -2 18 19 -6z m1975 10 c-8 -5 -22
-9 -30 -9 -10 0 -8 3 5 9 27 12 43 12 25 0z m-2791 -33 l25 -32 -32 29 c-33
31 -37 36 -24 35 4 0 18 -14 31 -32z m3094 26 c-7 -2 -19 -2 -25 0 -7 3 -2 5
12 5 14 0 19 -2 13 -5z m-126 -19 c-3 -3 -12 -4 -19 -1 -8 3 -5 6 6 6 11 1 17
-2 13 -5z m-3757 -24 c0 -5 -2 -10 -4 -10 -3 0 -8 5 -11 10 -3 6 -1 10 4 10 6
0 11 -4 11 -10z m960 -10 c6 -11 8 -20 6 -20 -3 0 -10 9 -16 20 -6 11 -8 20
-6 20 3 0 10 -9 16 -20z m140 10 c0 -5 -2 -10 -4 -10 -3 0 -8 5 -11 10 -3 6
-1 10 4 10 6 0 11 -4 11 -10z m148 -10 c7 -11 11 -20 9 -20 -2 0 -12 9 -22 20
-10 11 -14 20 -9 20 5 0 15 -9 22 -20z m262 10 c0 -5 -2 -10 -4 -10 -3 0 -8 5
-11 10 -3 6 -1 10 4 10 6 0 11 -4 11 -10z m135 -10 c10 -11 14 -20 9 -20 -5 0
-15 9 -22 20 -7 11 -11 20 -9 20 2 0 12 -9 22 -20z m1692 14 c-3 -3 -12 -4
-19 -1 -8 3 -5 6 6 6 11 1 17 -2 13 -5z m320 0 c-3 -3 -12 -4 -19 -1 -8 3 -5
6 6 6 11 1 17 -2 13 -5z m-3457 -44 c6 -11 8 -20 6 -20 -3 0 -10 9 -16 20 -6
11 -8 20 -6 20 3 0 10 -9 16 -20z m330 5 c7 -9 11 -17 8 -20 -2 -2 -12 4 -21
15 -9 11 -13 20 -8 20 5 0 14 -7 21 -15z m155 -5 c10 -11 16 -20 13 -20 -3 0
-13 9 -23 20 -10 11 -16 20 -13 20 3 0 13 -9 23 -20z m450 0 c10 -11 14 -20 9
-20 -5 0 -15 9 -22 20 -7 11 -11 20 -9 20 2 0 12 -9 22 -20z m421 -17 c15 -20
23 -33 16 -29 -13 8 -56 66 -49 66 3 0 17 -17 33 -37z m2261 31 c-3 -3 -12 -4
-19 -1 -8 3 -5 6 6 6 11 1 17 -2 13 -5z m-3947 -24 c0 -5 -2 -10 -4 -10 -3 0
-8 5 -11 10 -3 6 -1 10 4 10 6 0 11 -4 11 -10z m175 0 c3 -5 1 -10 -4 -10 -6
0 -11 5 -11 10 0 6 2 10 4 10 3 0 8 -4 11 -10z m870 -79 c-3 -2 -6 -2 -7 0 -2
2 -21 24 -43 49 l-40 45 47 -44 c26 -25 45 -47 43 -50z m85 79 c0 -5 -2 -10
-4 -10 -3 0 -8 5 -11 10 -3 6 -1 10 4 10 6 0 11 -4 11 -10z m304 -25 c15 -19
25 -35 23 -35 -2 0 -17 16 -34 35 -17 19 -28 35 -23 35 4 0 20 -16 34 -35z
m433 -43 c13 -14 23 -29 23 -34 0 -6 -20 15 -45 45 -25 31 -45 59 -45 64 0 4
10 -5 22 -21 12 -16 33 -41 45 -54z m736 63 c-3 -9 -8 -14 -10 -11 -3 3 -2 9
2 15 9 16 15 13 8 -4z m1212 5 c-11 -5 -29 -8 -40 -8 -16 0 -15 2 5 8 34 11
60 11 35 0z m-2239 -32 l29 -33 -32 29 c-31 28 -38 36 -30 36 2 0 16 -15 33
-32z m-325 -113 c10 -19 9 -19 -5 -1 -8 10 -30 35 -48 55 -18 20 -39 45 -47
56 -7 11 10 -5 38 -35 29 -30 56 -64 62 -75z m109 42 c-3 -2 -23 17 -44 42
l-40 46 44 -42 c24 -23 42 -44 40 -46z m-624 31 l29 -33 -32 29 c-31 28 -38
36 -30 36 2 0 16 -15 33 -32z m2831 26 c-3 -3 -12 -4 -19 -1 -8 3 -5 6 6 6 11
1 17 -2 13 -5z m320 0 c-3 -3 -12 -4 -19 -1 -8 3 -5 6 6 6 11 1 17 -2 13 -5z
m-2129 -47 c8 -10 42 -50 75 -89 34 -40 70 -81 79 -92 10 -12 38 -45 63 -75
24 -30 43 -57 40 -59 -3 -3 -6 -3 -8 -1 -36 48 -94 119 -186 229 -63 74 -106
128 -95 120 10 -8 25 -23 32 -33z m-1497 6 c13 -16 12 -17 -3 -4 -10 7 -18 15
-18 17 0 8 8 3 21 -13z m348 -27 c-2 -2 -13 8 -23 22 l-19 27 24 -22 c12 -12
21 -24 18 -27z m3098 38 c-3 -3 -12 -4 -19 -1 -8 3 -5 6 6 6 11 1 17 -2 13 -5z
m-3267 -24 c0 -5 -2 -10 -4 -10 -3 0 -8 5 -11 10 -3 6 -1 10 4 10 6 0 11 -4
11 -10z m505 -30 l30 -35 -32 29 c-18 17 -33 34 -33 40 0 5 1 7 3 5 1 -2 16
-20 32 -39z m251 -110 c18 -19 47 -51 64 -70 17 -19 48 -53 68 -75 20 -22 71
-79 112 -125 41 -46 107 -118 145 -160 39 -42 106 -116 150 -165 44 -49 101
-112 126 -139 25 -28 108 -121 185 -206 76 -85 141 -157 144 -160 7 -6 164
-181 205 -229 17 -19 100 -111 185 -204 197 -216 284 -317 278 -323 -3 -2 -29
24 -59 58 -30 35 -65 74 -79 88 -14 14 -81 88 -150 165 -68 77 -139 156 -156
175 -18 19 -44 48 -57 63 -126 141 -155 173 -177 197 -14 15 -54 60 -90 100
-36 41 -92 103 -125 138 -33 35 -65 72 -72 82 -12 17 -110 125 -163 180 -14
14 -52 57 -85 95 -33 39 -69 79 -80 90 -12 11 -52 56 -91 99 -71 83 -75 87
-135 152 -19 21 -77 86 -129 144 -51 58 -106 118 -121 134 -16 15 -29 32 -29
37 0 5 23 -17 52 -48 28 -32 66 -74 84 -93z m1635 127 c-10 -9 -11 -8 -5 6 3
10 9 15 12 12 3 -3 0 -11 -7 -18z m1079 13 c-8 -5 -22 -10 -30 -10 -13 0 -13
1 0 10 8 5 22 10 30 10 13 0 13 -1 0 -10z m-3795 -20 c10 -11 16 -20 13 -20
-3 0 -13 9 -23 20 -10 11 -16 20 -13 20 3 0 13 -9 23 -20z m673 -15 c-3 -3 -9
2 -12 12 -6 14 -5 15 5 6 7 -7 10 -15 7 -18z m1211 -94 c34 -42 70 -85 80 -96
55 -66 168 -202 176 -211 6 -7 26 -31 45 -55 19 -24 52 -64 74 -89 41 -49 48
-57 116 -140 24 -30 60 -73 80 -96 57 -65 83 -97 112 -136 15 -20 35 -44 44
-53 18 -17 62 -71 109 -130 17 -21 90 -110 163 -197 72 -87 132 -160 132 -163
0 -13 -15 3 -102 107 -111 134 -120 146 -149 178 -12 14 -46 57 -77 95 -31 39
-72 88 -91 111 -20 22 -43 49 -51 60 -24 31 -104 127 -120 145 -8 9 -22 25
-30 35 -31 39 -387 471 -435 529 -129 152 -175 211 -174 221 0 5 8 -2 17 -15
9 -14 46 -59 81 -100z m-1678 76 l11 -22 -21 22 c-22 23 -28 39 -11 28 5 -3
15 -16 21 -28z m1181 -107 c37 -41 65 -77 62 -79 -3 -3 -16 8 -30 24 -64 75
-120 139 -129 149 -5 6 -16 20 -24 31 -17 24 31 -26 121 -125z m26 115 c-3 -3
-9 2 -12 12 -6 14 -5 15 5 6 7 -7 10 -15 7 -18z m-679 -46 c43 -51 36 -50 -14
1 -21 22 -35 40 -30 39 6 0 25 -18 44 -40z m759 -35 c29 -34 52 -65 52 -68 0
-4 -27 25 -60 63 -33 39 -60 73 -60 77 0 5 4 4 8 -1 5 -6 32 -38 60 -71z m143
-13 c22 -24 38 -45 36 -47 -5 -5 -98 101 -110 125 -5 9 1 5 13 -9 12 -14 40
-45 61 -69z m1826 83 c-3 -3 -12 -4 -19 -1 -8 3 -5 6 6 6 11 1 17 -2 13 -5z
m-3038 -57 c-2 -3 -15 10 -28 27 l-24 31 28 -27 c16 -15 27 -29 24 -31z m161
8 l35 -40 -37 34 c-21 19 -38 39 -38 45 0 5 1 7 3 5 1 -2 18 -22 37 -44z m625
-24 c-5 -4 -54 51 -55 62 0 4 13 -7 29 -25 16 -18 28 -35 26 -37z m-1100 -3
l60 -62 -61 54 c-53 47 -73 70 -61 70 1 0 29 -28 62 -62z m775 41 c0 -6 -4 -7
-10 -4 -5 3 -10 11 -10 16 0 6 5 7 10 4 6 -3 10 -11 10 -16z m2793 14 c-7 -2
-19 -2 -25 0 -7 3 -2 5 12 5 14 0 19 -2 13 -5z m-3737 -65 l29 -33 -32 29
c-31 28 -38 36 -30 36 2 0 16 -15 33 -32z m339 12 c10 -11 16 -20 13 -20 -3 0
-13 9 -23 20 -10 11 -16 20 -13 20 3 0 13 -9 23 -20z m1748 5 c-3 -9 -8 -14
-10 -11 -3 3 -2 9 2 15 9 16 15 13 8 -4z m-1488 -106 c10 -13 -9 3 -43 36 -34
33 -62 64 -62 69 0 9 66 -57 105 -105z m1946 88 c-10 -9 -11 -8 -5 6 3 10 9
15 12 12 3 -3 0 -11 -7 -18z m1204 13 c-3 -5 -12 -10 -18 -10 -7 0 -6 4 3 10
19 12 23 12 15 0z m-2630 -158 c-2 -3 -17 10 -32 29 -15 18 -35 40 -43 48 -8
9 -26 30 -40 47 -14 17 7 -3 47 -45 40 -41 70 -77 68 -79z m-220 79 c-7 -6
-24 10 -46 42 l-22 32 36 -35 c19 -19 34 -37 32 -39z m-86 -76 c16 -18 19 -24
6 -15 -10 8 -33 30 -50 49 -16 19 -37 42 -45 50 -9 9 -22 25 -29 36 -14 20 71
-65 118 -120z m-424 115 c3 -5 2 -10 -4 -10 -5 0 -13 5 -16 10 -3 6 -2 10 4
10 5 0 13 -4 16 -10z m978 -61 c27 -32 41 -56 33 -53 -9 3 -16 9 -16 13 0 3
-12 20 -27 36 -14 17 -36 40 -47 53 -13 14 -15 21 -6 17 8 -4 37 -33 63 -66z
m843 43 c-17 -16 -18 -16 -5 5 7 12 15 20 18 17 3 -2 -3 -12 -13 -22z m1541 2
c-3 -3 -12 -4 -19 -1 -8 3 -5 6 6 6 11 1 17 -2 13 -5z m-3686 -21 c13 -16 12
-17 -3 -4 -10 7 -18 15 -18 17 0 8 8 3 21 -13z m354 -3 c10 -11 16 -20 13 -20
-3 0 -13 9 -23 20 -10 11 -16 20 -13 20 3 0 13 -9 23 -20z m-524 -7 c13 -17
13 -17 -6 -3 -11 8 -22 16 -24 17 -2 2 0 3 6 3 6 0 17 -8 24 -17z m364 -3 c10
-11 16 -20 13 -20 -3 0 -13 9 -23 20 -10 11 -16 20 -13 20 3 0 13 -9 23 -20z
m1415 -50 c9 -8 151 -171 195 -224 22 -27 49 -58 61 -70 11 -11 49 -55 84 -96
35 -41 66 -77 69 -80 3 -3 31 -34 61 -70 30 -36 67 -78 81 -95 27 -30 88 -100
384 -444 257 -298 337 -393 332 -397 -2 -2 -49 48 -103 112 -54 64 -108 126
-119 138 -17 18 -108 122 -179 206 -11 14 -75 88 -141 165 -67 77 -132 153
-145 169 -14 16 -47 55 -74 85 -69 79 -94 108 -156 181 -30 36 -60 70 -66 75
-6 6 -60 69 -120 140 -60 72 -114 135 -120 140 -21 20 -104 122 -104 129 0 4
12 -7 27 -26 15 -18 30 -35 33 -38z m138 -5 c15 -16 101 -118 191 -225 91
-107 169 -199 175 -205 6 -5 35 -39 65 -75 30 -36 60 -69 65 -75 6 -5 29 -32
50 -60 22 -27 44 -54 50 -60 10 -9 45 -50 201 -236 114 -135 313 -368 342
-399 30 -32 40 -50 29 -50 -3 0 -59 64 -126 143 -67 78 -143 167 -169 197 -26
30 -97 114 -157 185 -60 72 -111 132 -114 135 -3 3 -30 34 -60 70 -30 36 -71
83 -90 105 -19 23 -57 67 -85 100 -27 32 -55 63 -60 69 -6 6 -41 49 -80 96
-38 47 -76 92 -85 101 -8 8 -31 35 -50 59 -19 24 -63 76 -97 114 -35 39 -63
76 -63 81 1 6 10 -1 21 -15 12 -14 33 -38 47 -55z m605 50 c-3 -9 -8 -14 -10
-11 -3 3 -2 9 2 15 9 16 15 13 8 -4z m-1879 -114 c-5 -5 -94 88 -94 98 0 3 22
-17 49 -44 27 -28 47 -52 45 -54z m476 3 c0 -11 -30 18 -62 60 -31 41 -31 41
16 -6 25 -27 46 -51 46 -54z m-884 65 c19 -22 19 -22 -3 -8 -13 8 -23 17 -23
21 0 12 6 9 26 -13z m169 11 c3 -5 1 -10 -4 -10 -6 0 -11 5 -11 10 0 6 2 10 4
10 3 0 8 -4 11 -10z m1235 1 c0 -5 15 -24 33 -42 18 -19 77 -86 132 -149 54
-63 101 -117 104 -120 4 -3 36 -39 71 -80 36 -41 103 -118 150 -170 47 -53 96
-109 110 -126 36 -42 213 -244 314 -358 10 -12 53 -61 95 -110 42 -49 99 -114
127 -145 28 -31 77 -87 109 -124 32 -38 71 -83 86 -100 16 -17 29 -36 29 -42
0 -5 -12 4 -27 20 -14 17 -52 59 -83 95 -32 36 -108 124 -170 195 -102 118
-192 220 -245 279 -11 12 -74 85 -140 161 -66 77 -141 162 -166 190 -25 27
-104 118 -175 200 -71 83 -143 165 -159 184 -17 18 -37 41 -45 50 -23 25 -142
163 -159 184 -9 11 -10 17 -3 17 7 0 12 -4 12 -9z m782 -13 c-7 -7 -12 -8 -12
-2 0 14 12 26 19 19 2 -3 -1 -11 -7 -17z m-2287 -80 l90 -93 -86 80 c-73 68
-107 105 -96 105 1 0 43 -42 92 -92z m616 75 c13 -16 12 -17 -3 -4 -10 7 -18
15 -18 17 0 8 8 3 21 -13z m1729 -24 c-7 -11 -14 -18 -17 -15 -3 3 0 12 7 21
18 21 23 19 10 -6z m80 7 c0 -2 -8 -10 -17 -17 -16 -13 -17 -12 -4 4 13 16 21
21 21 13z m-2100 -27 c0 -6 -4 -7 -10 -4 -5 3 -10 11 -10 16 0 6 5 7 10 4 6
-3 10 -11 10 -16z m840 -45 c15 -17 8 -13 -18 11 -23 21 -42 43 -42 47 0 8 19
-10 60 -58z m270 28 c0 -1 -9 2 -20 8 -11 6 -20 15 -20 20 0 6 9 2 20 -7 11
-10 20 -19 20 -21z m-596 -171 c22 -24 34 -40 26 -36 -8 5 -39 36 -70 68 -30
33 -74 80 -97 104 -24 24 -43 47 -43 51 1 6 34 -28 184 -187z m1121 171 c-3
-3 -11 0 -18 7 -9 10 -8 11 6 5 10 -3 15 -9 12 -12z m-1586 -36 c-2 -2 -13 8
-23 22 l-19 27 24 -22 c12 -12 21 -24 18 -27z m1941 35 c0 -5 -9 -19 -20 -32
l-20 -24 17 32 c19 34 23 39 23 24z m433 -16 c-3 -9 -8 -14 -10 -11 -3 3 -2 9
2 15 9 16 15 13 8 -4z m458 -12 c-12 -20 -14 -14 -5 12 4 9 9 14 11 11 3 -2 0
-13 -6 -23z m-2991 -18 c19 -19 32 -35 29 -35 -3 0 -20 16 -39 35 -19 19 -32
35 -29 35 3 0 20 -16 39 -35z m374 -34 c-6 -6 -63 52 -64 64 0 5 15 -6 34 -25
19 -19 32 -37 30 -39z m271 59 c3 -5 1 -10 -4 -10 -6 0 -11 5 -11 10 0 6 2 10
4 10 3 0 8 -4 11 -10z m354 -215 c37 -38 102 -110 146 -158 44 -49 103 -112
130 -141 28 -28 79 -83 114 -121 35 -39 114 -124 175 -190 62 -66 164 -176
227 -244 63 -68 132 -143 154 -166 44 -47 222 -238 329 -355 39 -41 99 -106
134 -143 35 -38 61 -71 58 -75 -4 -3 -37 28 -74 68 -37 41 -108 118 -157 170
-50 52 -131 139 -180 193 -50 55 -103 114 -120 131 -16 18 -100 109 -186 202
-86 93 -170 183 -185 200 -16 16 -68 73 -115 125 -86 93 -103 111 -223 240
-33 36 -83 90 -110 120 -27 30 -76 83 -110 119 -180 194 -265 292 -151 175 43
-44 108 -111 144 -150z m287 158 c-5 -6 -66 50 -66 61 0 6 16 -5 35 -24 19
-18 33 -35 31 -37z m544 -15 c71 -87 72 -89 144 -172 27 -32 58 -69 70 -84 12
-15 28 -34 36 -43 8 -9 24 -27 34 -40 10 -13 42 -51 70 -84 29 -33 63 -74 76
-91 21 -26 96 -115 274 -324 11 -14 55 -66 96 -115 41 -50 90 -107 110 -128
19 -21 39 -45 43 -53 13 -23 -9 -16 -26 9 -9 12 -26 34 -39 48 -13 15 -41 48
-63 75 -22 26 -80 95 -130 153 -49 58 -193 230 -318 381 -126 151 -241 289
-255 305 -15 17 -60 71 -101 120 -41 50 -81 98 -89 108 -8 9 -11 17 -6 16 5 0
38 -37 74 -81z m840 72 c0 -5 -5 -10 -11 -10 -5 0 -7 5 -4 10 3 6 8 10 11 10
2 0 4 -4 4 -10z m-368 -22 c-7 -7 -12 -8 -12 -2 0 6 3 14 7 17 3 4 9 5 12 2 2
-3 -1 -11 -7 -17z m-1632 -8 c0 -5 -2 -10 -4 -10 -3 0 -8 5 -11 10 -3 6 -1 10
4 10 6 0 11 -4 11 -10z m-1005 -30 c10 -11 16 -20 13 -20 -3 0 -13 9 -23 20
-10 11 -16 20 -13 20 3 0 13 -9 23 -20z m1097 -68 c8 -11 5 -10 -12 3 -33 27
-69 68 -70 78 0 8 56 -48 82 -81z m258 42 c0 -4 -9 1 -20 11 -11 10 -20 23
-20 28 0 6 9 1 20 -11 11 -12 20 -24 20 -28z m-785 6 c16 -16 25 -30 19 -30
-12 1 -70 60 -58 60 6 0 23 -13 39 -30z m-170 -10 c10 -11 16 -20 13 -20 -3 0
-13 9 -23 20 -10 11 -16 20 -13 20 3 0 13 -9 23 -20z m1370 -132 c16 -18 83
-94 149 -168 66 -74 134 -151 151 -170 16 -19 53 -59 80 -90 28 -30 84 -93
125 -140 76 -86 142 -160 170 -189 8 -9 25 -28 36 -43 12 -15 55 -65 97 -110
41 -46 90 -100 108 -122 19 -21 45 -50 59 -65 14 -14 56 -62 94 -106 39 -44
79 -90 90 -102 11 -13 15 -23 10 -23 -6 0 -44 39 -86 88 -42 48 -87 98 -100
112 -13 14 -52 59 -88 100 -36 41 -88 99 -116 130 -28 30 -82 91 -119 135 -38
44 -76 87 -85 95 -8 8 -44 49 -80 90 -36 41 -121 138 -189 215 -68 77 -151
171 -185 209 -34 38 -80 90 -102 115 -23 25 -69 80 -104 121 l-62 75 58 -62
c33 -33 72 -76 89 -95z m-1727 117 c-3 -3 -9 2 -12 12 -6 14 -5 15 5 6 7 -7
10 -15 7 -18z m197 -3 c-3 -3 -11 0 -18 7 -9 10 -8 11 6 5 10 -3 15 -9 12 -12z
m632 -113 c71 -73 179 -184 241 -248 63 -64 232 -237 375 -386 144 -148 341
-350 437 -450 97 -99 230 -236 295 -304 148 -153 307 -316 388 -398 33 -34 58
-65 55 -68 -3 -3 -47 38 -99 91 -208 213 -253 259 -469 483 -124 128 -276 286
-338 350 -62 64 -208 215 -325 336 -188 195 -275 284 -502 520 -33 34 -91 94
-130 133 -38 40 -66 72 -62 72 4 0 64 -59 134 -131z m1636 116 c-3 -9 -8 -14
-10 -11 -3 3 -2 9 2 15 9 16 15 13 8 -4z m-1094 -37 c22 -23 38 -45 35 -47 -2
-3 -14 6 -26 20 -12 13 -30 34 -41 47 -36 40 -10 23 32 -20z m-1100 -35 c2 -2
2 -5 -1 -8 -2 -3 -20 12 -39 33 l-34 37 35 -30 c19 -17 37 -31 39 -32z m169 9
c8 -7 12 -15 10 -17 -2 -3 -20 12 -39 32 -30 33 -13 24 29 -15z m230 -60 c59
-60 301 -305 537 -544 839 -848 1360 -1379 1363 -1391 4 -16 -1036 1034 -1651
1666 -76 78 -191 195 -255 260 -64 64 -113 117 -109 117 4 0 56 -49 115 -108z
m1852 88 c-6 -11 -13 -20 -16 -20 -2 0 0 9 6 20 6 11 13 20 16 20 2 0 0 -9 -6
-20z m-2444 -32 l19 -23 -25 20 c-14 11 -27 21 -29 22 -2 2 0 3 6 3 5 0 18
-10 29 -22z m1009 11 c11 -17 -1 -21 -15 -4 -8 9 -8 15 -2 15 6 0 14 -5 17
-11z m-1160 -49 c27 -27 47 -50 44 -50 -3 0 -27 23 -54 50 -27 28 -47 50 -44
50 3 0 27 -22 54 -50z m2928 35 c-3 -9 -8 -14 -10 -11 -3 3 -2 9 2 15 9 16 15
13 8 -4z m200 0 c-3 -9 -8 -14 -10 -11 -3 3 -2 9 2 15 9 16 15 13 8 -4z m130
0 c-3 -9 -8 -14 -10 -11 -3 3 -2 9 2 15 9 16 15 13 8 -4z m-683 1 c0 -3 -4 -8
-10 -11 -5 -3 -10 -1 -10 4 0 6 5 11 10 11 6 0 10 -2 10 -4z m-1180 -236 c76
-80 149 -157 162 -172 14 -15 97 -103 184 -195 140 -148 247 -261 294 -313 8
-9 83 -88 165 -175 83 -88 161 -171 175 -186 62 -68 262 -280 333 -353 42 -44
77 -85 77 -91 0 -11 -59 49 -290 295 -80 85 -185 198 -234 250 -125 133 -219
233 -301 320 -38 41 -136 145 -216 230 -80 85 -171 182 -202 215 -30 33 -82
87 -114 121 -129 134 -248 266 -251 277 -2 7 15 -8 39 -33 23 -25 103 -110
179 -190z m-1116 111 c9 -18 -77 58 -94 84 -7 11 10 0 37 -25 28 -25 54 -51
57 -59z m296 67 c0 -12 -6 -9 -26 13 -19 22 -19 22 4 8 12 -8 22 -17 22 -21z
m529 -36 c36 -37 156 -162 266 -277 226 -237 370 -387 471 -492 108 -112 203
-212 419 -438 110 -116 243 -255 296 -310 145 -151 179 -189 179 -200 0 -5
-26 17 -57 50 -31 33 -104 110 -163 171 -58 60 -186 195 -285 300 -99 104
-234 245 -300 314 -66 69 -152 158 -190 199 -39 40 -90 94 -115 120 -25 25
-124 129 -220 230 -229 241 -252 265 -324 339 -33 34 -57 62 -52 62 5 0 38
-31 75 -68z m415 47 c8 -12 57 -67 109 -123 51 -55 120 -130 153 -166 32 -36
79 -87 105 -115 25 -27 95 -104 155 -170 60 -66 118 -129 129 -141 11 -11 40
-43 64 -70 24 -27 85 -94 135 -148 50 -55 102 -111 114 -125 13 -14 65 -71
115 -126 51 -55 113 -122 138 -150 25 -27 67 -72 92 -100 26 -27 47 -54 47
-60 0 -11 -50 41 -195 201 -49 54 -92 101 -95 104 -3 3 -55 59 -115 125 -60
66 -112 122 -115 125 -3 3 -43 48 -90 100 -47 52 -96 106 -110 120 -36 37
-204 221 -210 230 -3 4 -43 49 -90 101 -47 51 -134 147 -194 213 -60 67 -125
138 -145 159 -19 20 -30 37 -24 37 7 0 19 -10 27 -21z m1256 17 c0 -3 -4 -8
-10 -11 -5 -3 -10 -1 -10 4 0 6 5 11 10 11 6 0 10 -2 10 -4z m581 -19 c-10 -9
-11 -8 -5 6 3 10 9 15 12 12 3 -3 0 -11 -7 -18z m-819 -9 c-7 -7 -12 -8 -12
-2 0 6 3 14 7 17 3 4 9 5 12 2 2 -3 -1 -11 -7 -17z m63 -17 c-21 -43 -29 -39
-8 4 9 19 18 33 21 31 2 -2 -4 -18 -13 -35z m628 24 c-3 -9 -8 -14 -10 -11 -3
3 -2 9 2 15 9 16 15 13 8 -4z m358 -8 c-10 -9 -11 -8 -5 6 3 10 9 15 12 12 3
-3 0 -11 -7 -18z m-2865 -316 c231 -226 1013 -993 1239 -1216 563 -555 598
-590 578 -584 -12 4 -74 65 -1128 1104 -313 309 -672 663 -797 785 -126 123
-228 227 -228 232 0 5 24 -15 53 -44 30 -29 157 -154 283 -277z m2095 302
c-12 -20 -14 -14 -5 12 4 9 9 14 11 11 3 -2 0 -13 -6 -23z m590 4 c-10 -9 -11
-8 -5 6 3 10 9 15 12 12 3 -3 0 -11 -7 -18z m-741 -17 c-6 -11 -13 -20 -16
-20 -2 0 0 9 6 20 6 11 13 20 16 20 2 0 0 -9 -6 -20z m-1068 -990 c551 -549
999 -1002 996 -1006 -4 -3 -415 404 -915 904 -1137 1140 -1099 1102 -1091
1102 4 0 458 -450 1010 -1000z m-1252 715 c94 -89 199 -188 289 -275 26 -25
83 -78 127 -119 75 -71 359 -340 548 -521 49 -47 110 -105 136 -130 26 -25
124 -119 218 -208 94 -90 184 -175 199 -189 47 -44 372 -353 470 -447 51 -49
98 -93 105 -97 7 -4 9 -11 5 -15 -7 -7 -40 22 -222 196 -55 53 -149 143 -210
200 -60 58 -146 139 -190 181 -44 43 -98 94 -120 115 -22 20 -94 89 -161 153
-66 64 -163 157 -215 206 -52 50 -173 164 -268 255 -95 91 -200 191 -234 223
-34 32 -138 131 -231 220 -254 243 -254 243 -400 382 -75 71 -136 134 -136
139 0 5 44 -34 98 -86 53 -52 140 -134 192 -183z m2912 243 c-7 -7 -12 -8 -12
-2 0 6 3 14 7 17 3 4 9 5 12 2 2 -3 -1 -11 -7 -17z m-252 8 c0 -3 -4 -8 -10
-11 -5 -3 -10 -1 -10 4 0 6 5 11 10 11 6 0 10 -2 10 -4z m53 -11 c-3 -9 -8
-14 -10 -11 -3 3 -2 9 2 15 9 16 15 13 8 -4z m-2749 -31 c3 -8 2 -12 -4 -9 -6
3 -10 10 -10 16 0 14 7 11 14 -7z m3049 1 c-3 -9 -8 -14 -10 -11 -3 3 -2 9 2
15 9 16 15 13 8 -4z m-678 -35 c-9 -18 -19 -30 -21 -27 -3 2 3 18 13 35 23 40
29 33 8 -8z m76 17 c-10 -9 -11 -8 -5 6 3 10 9 15 12 12 3 -3 0 -11 -7 -18z
m-2371 -52 c23 -28 6 -23 -25 7 -21 21 -24 27 -9 20 11 -6 27 -18 34 -27z
m2493 20 c-3 -9 -8 -14 -10 -11 -3 3 -2 9 2 15 9 16 15 13 8 -4z m-167 -47
c-9 -12 -16 -19 -16 -15 0 11 24 47 28 42 2 -2 -3 -14 -12 -27z m408 2 c-10
-16 -20 -28 -22 -26 -4 5 28 56 35 56 2 0 -4 -13 -13 -30z m319 15 c-3 -9 -8
-14 -10 -11 -3 3 -2 9 2 15 9 16 15 13 8 -4z m-132 -18 c-10 -9 -11 -8 -5 6 3
10 9 15 12 12 3 -3 0 -11 -7 -18z m60 0 c-10 -9 -11 -8 -5 6 3 10 9 15 12 12
3 -3 0 -11 -7 -18z m-191 -7 c-6 -11 -13 -20 -16 -20 -2 0 0 9 6 20 6 11 13
20 16 20 2 0 0 -9 -6 -20z m-2629 -121 c31 -30 168 -162 304 -294 136 -132
268 -260 294 -284 25 -24 156 -150 290 -280 134 -130 283 -274 332 -321 48
-47 185 -179 304 -295 120 -115 265 -256 324 -312 58 -56 103 -104 99 -108 -4
-4 -24 10 -46 31 -70 70 -424 415 -687 669 -143 138 -333 322 -424 410 -91 88
-187 180 -213 205 -26 25 -183 178 -349 340 -167 162 -318 309 -336 327 -18
18 -33 36 -33 40 0 4 19 -11 43 -34 23 -22 67 -65 98 -94z m2345 83 c-18 -16
-18 -16 -6 6 6 13 14 21 18 18 3 -4 -2 -14 -12 -24z m64 -12 c0 -5 -5 -10 -11
-10 -5 0 -7 5 -4 10 3 6 8 10 11 10 2 0 4 -4 4 -10z m248 -15 c-6 -14 -13 -23
-15 -21 -5 5 15 46 22 46 3 0 -1 -11 -7 -25z m-398 -9 c0 -3 -4 -8 -10 -11 -5
-3 -10 -1 -10 4 0 6 5 11 10 11 6 0 10 -2 10 -4z m121 -19 c-10 -9 -11 -8 -5
6 3 10 9 15 12 12 3 -3 0 -11 -7 -18z m199 3 c-6 -11 -13 -20 -16 -20 -2 0 0
9 6 20 6 11 13 20 16 20 2 0 0 -9 -6 -20z m-222 -45 c-6 -14 -13 -23 -15 -21
-5 5 15 46 22 46 3 0 -1 -11 -7 -25z m173 -42 c-12 -20 -14 -14 -5 12 4 9 9
14 11 11 3 -2 0 -13 -6 -23z m-82 -28 c-12 -19 -23 -35 -25 -35 -6 0 14 40 29
58 18 23 16 12 -4 -23z m139 15 c-7 -10 -14 -17 -17 -15 -4 4 18 35 25 35 2 0
-1 -9 -8 -20z m175 -15 c-3 -9 -8 -14 -10 -11 -3 3 -2 9 2 15 9 16 15 13 8 -4z
m48 -18 c-10 -9 -11 -8 -5 6 3 10 9 15 12 12 3 -3 0 -11 -7 -18z m-321 -27
c-6 -11 -13 -20 -16 -20 -2 0 0 9 6 20 6 11 13 20 16 20 2 0 0 -9 -6 -20z
m303 -5 c-3 -9 -8 -14 -10 -11 -3 3 -2 9 2 15 9 16 15 13 8 -4z m-32 -58 c-10
-9 -11 -8 -5 6 3 10 9 15 12 12 3 -3 0 -11 -7 -18z m-130 -20 c-10 -9 -11 -8
-5 6 3 10 9 15 12 12 3 -3 0 -11 -7 -18z m47 -27 c-7 -10 -14 -17 -17 -15 -4
4 18 35 25 35 2 0 -1 -9 -8 -20z m-97 -63 c-10 -9 -11 -8 -5 6 3 10 9 15 12
12 3 -3 0 -11 -7 -18z m62 -2 c-3 -9 -8 -14 -10 -11 -3 3 -2 9 2 15 9 16 15
13 8 -4z m98 -42 c-12 -20 -14 -14 -5 12 4 9 9 14 11 11 3 -2 0 -13 -6 -23z
m-21 -43 c-6 -11 -13 -20 -16 -20 -2 0 0 9 6 20 6 11 13 20 16 20 2 0 0 -9 -6
-20z m-127 -5 c-3 -9 -8 -14 -10 -11 -3 3 -2 9 2 15 9 16 15 13 8 -4z m47 -25
c-6 -11 -13 -20 -16 -20 -2 0 0 9 6 20 6 11 13 20 16 20 2 0 0 -9 -6 -20z"/>
<path d="M0 1560 l0 -79 128 -100 c70 -55 146 -115 169 -133 24 -18 103 -80
176 -138 73 -58 150 -118 171 -135 22 -16 90 -70 152 -120 62 -49 144 -115
184 -145 39 -30 83 -64 97 -75 14 -11 45 -36 68 -55 22 -19 56 -47 75 -62 19
-15 82 -64 139 -110 58 -46 125 -99 150 -119 25 -19 119 -92 208 -162 l162
-127 81 0 81 0 -78 62 c-43 34 -80 64 -83 67 -3 4 -41 35 -85 69 -96 76 -143
114 -159 127 -22 20 -134 111 -172 140 -21 17 -66 53 -99 80 -33 28 -141 115
-240 194 -99 80 -196 158 -216 175 -20 17 -45 38 -55 46 -11 8 -53 42 -94 75
-93 74 -90 72 -175 140 -38 30 -79 63 -90 73 -28 25 -165 136 -229 185 -30 23
-99 79 -155 125 -55 45 -103 82 -106 82 -3 0 -5 -36 -5 -80z"/>
<path d="M1 1379 l0 -84 105 -80 c163 -124 217 -165 241 -185 12 -10 79 -62
149 -115 70 -53 143 -110 163 -126 33 -27 224 -174 500 -387 62 -48 130 -100
151 -117 20 -16 69 -55 109 -85 39 -30 113 -88 164 -127 l92 -73 85 0 c72 0
82 2 70 14 -17 15 -240 192 -501 396 -95 74 -191 151 -214 170 -23 19 -57 46
-75 60 -19 14 -59 45 -89 70 -31 25 -68 54 -82 65 -14 11 -84 66 -155 123
-200 159 -408 323 -534 422 -63 50 -122 96 -130 103 -9 7 -23 18 -33 26 -16
12 -17 8 -16 -70z"/>
<path d="M0 1192 c0 -64 4 -82 18 -95 10 -10 22 -17 25 -17 4 0 33 -21 65 -46
31 -25 64 -51 72 -57 29 -22 135 -102 145 -109 5 -4 26 -20 45 -36 19 -16 54
-42 76 -58 23 -16 89 -65 145 -108 124 -95 434 -329 539 -408 41 -31 82 -62
90 -70 9 -7 69 -53 133 -101 l118 -88 86 3 85 3 -70 55 c-38 30 -111 87 -162
125 -51 39 -129 99 -174 135 -46 36 -95 74 -110 85 -16 11 -45 34 -65 50 -21
17 -53 41 -71 55 -90 68 -415 321 -489 380 -31 25 -78 61 -104 80 -26 19 -85
64 -130 100 -129 103 -256 200 -262 200 -3 0 -5 -35 -5 -78z"/>
<path d="M0 1009 l0 -84 78 -55 c42 -30 84 -60 92 -67 8 -7 55 -42 105 -78 50
-36 97 -71 105 -78 8 -6 67 -50 130 -97 63 -47 120 -88 125 -92 6 -5 42 -32
80 -61 39 -29 120 -88 180 -132 61 -44 112 -82 115 -85 3 -3 37 -29 75 -57 39
-29 91 -68 117 -88 45 -34 48 -35 140 -35 103 1 102 -2 22 55 -15 11 -39 29
-53 41 -14 11 -84 65 -156 120 -71 54 -210 159 -308 234 -97 74 -219 167 -271
205 -51 39 -119 90 -151 115 -32 25 -70 54 -85 65 -15 11 -89 67 -165 125 -75
58 -145 111 -156 119 -18 13 -19 10 -19 -70z"/>
<path d="M0 825 l0 -75 66 -48 c37 -26 112 -81 168 -122 55 -41 187 -137 291
-212 105 -76 261 -189 348 -253 l158 -115 95 0 96 0 -119 87 c-65 48 -123 92
-129 98 -6 5 -46 35 -88 65 -42 30 -182 134 -311 230 -129 96 -309 230 -399
298 -91 67 -167 122 -170 122 -3 0 -6 -34 -6 -75z"/>
<path d="M0 642 l0 -78 76 -55 c42 -30 106 -74 143 -99 36 -25 93 -65 126 -90
32 -24 88 -64 123 -88 36 -24 70 -48 76 -53 6 -6 23 -18 37 -27 15 -9 69 -47
120 -84 l94 -68 99 0 c59 0 96 4 91 9 -10 9 -135 101 -246 181 -35 25 -109 79
-165 120 -297 219 -563 410 -569 410 -3 0 -5 -35 -5 -78z"/>
<path d="M0 456 c0 -73 2 -85 18 -90 10 -4 27 -14 38 -24 11 -9 47 -35 79 -58
98 -66 244 -167 332 -228 l81 -56 107 0 107 0 -93 68 c-52 37 -107 76 -124 86
-16 11 -36 26 -43 33 -8 7 -22 18 -32 23 -11 6 -115 79 -232 163 -117 84 -219
156 -225 161 -10 5 -13 -12 -13 -78z"/>
<path d="M0 272 l0 -77 145 -98 145 -98 110 3 109 3 -62 42 c-34 23 -91 62
-127 88 -117 82 -144 101 -227 158 -46 31 -85 57 -88 57 -3 0 -5 -35 -5 -78z"/>
<path d="M0 85 l0 -85 127 0 c69 0 124 2 122 4 -6 5 -187 127 -221 148 l-28
18 0 -85z"/>
</g>
</svg>
